<?xml version="1.0" encoding="UTF-8" standalone="no"?>
<!-- Created with Inkscape (http://www.inkscape.org/) -->

<svg
   xmlns:dc="http://purl.org/dc/elements/1.1/"
   xmlns:cc="http://creativecommons.org/ns#"
   xmlns:rdf="http://www.w3.org/1999/02/22-rdf-syntax-ns#"
   xmlns:svg="http://www.w3.org/2000/svg"
   xmlns="http://www.w3.org/2000/svg"
   xmlns:sodipodi="http://sodipodi.sourceforge.net/DTD/sodipodi-0.dtd"
   xmlns:inkscape="http://www.inkscape.org/namespaces/inkscape"
   width="400"
   height="200"
   viewBox="0 0 105.83333 52.916668"
   version="1.1"
   id="svg8"
   inkscape:version="0.92.0 r15299"
   sodipodi:docname="cookie_quest.svg"
   inkscape:export-filename="cookie_quest.png"
   inkscape:export-xdpi="12"
   inkscape:export-ydpi="12">
  <defs
     id="defs2" />
  <sodipodi:namedview
     id="base"
     pagecolor="#ffffff"
     bordercolor="#666666"
     borderopacity="1.0"
     inkscape:pageopacity="0.0"
     inkscape:pageshadow="2"
     inkscape:zoom="3.6"
     inkscape:cx="200.60306"
     inkscape:cy="103.79765"
     inkscape:document-units="px"
     inkscape:current-layer="layer1"
     showgrid="true"
     units="px"
     inkscape:window-width="1920"
     inkscape:window-height="1017"
     inkscape:window-x="-8"
     inkscape:window-y="-8"
     inkscape:window-maximized="1"
     inkscape:snap-global="false">
    <inkscape:grid
       type="xygrid"
       id="grid3680"
       spacingx="1.0583333"
       spacingy="1.0583333"
       dotted="true"
       empspacing="8" />
  </sodipodi:namedview>
  <metadata
     id="metadata5">
    <rdf:RDF>
      <cc:Work
         rdf:about="">
        <dc:format>image/svg+xml</dc:format>
        <dc:type
           rdf:resource="http://purl.org/dc/dcmitype/StillImage" />
        <dc:title></dc:title>
      </cc:Work>
    </rdf:RDF>
  </metadata>
  <g
     inkscape:label="Layer 1"
     inkscape:groupmode="layer"
     id="layer1"
     transform="translate(0,-244.08331)">
    <g
       aria-label="Curious"
       style="font-style:normal;font-variant:normal;font-weight:normal;font-stretch:normal;font-size:30.46014595px;line-height:7.93232918px;font-family:Impact;-inkscape-font-specification:Impact;letter-spacing:0px;word-spacing:0px;fill:#fad116;fill-opacity:1;stroke:#e90000;stroke-width:1.32291663;stroke-miterlimit:4;stroke-dasharray:none;stroke-opacity:1"
       id="text6765"
       transform="matrix(1,0,-0.32071001,1,86.970934,0.02556426)">
      <path
         d="M 15.779916,258.28324 H 9.5183337 v -4.19422 q 0,-1.82939 -0.2082236,-2.27559 -0.1933505,-0.46106 -0.877514,-0.46106 -0.7734021,0 -0.9816258,0.5503 -0.2082236,0.55031 -0.2082236,2.3797 v 11.18459 q 0,1.75502 0.2082236,2.29046 0.2082237,0.53543 0.9370065,0.53543 0.6990365,0 0.9072602,-0.53543 0.2230967,-0.53544 0.2230967,-2.51356 v -3.01924 h 6.2615823 v 0.937 q 0,3.73315 -0.535432,5.29483 -0.520559,1.56168 -2.335079,2.73666 -1.799648,1.17497 -4.4470626,1.17497 -2.7515269,0 -4.5363011,-0.9965 -1.7847742,-0.9965 -2.3648258,-2.75152 -0.58005157,-1.7699 -0.58005157,-5.30971 v -7.03498 q 0,-2.6028 0.17847747,-3.89676 0.1784774,-1.30883 1.0559913,-2.51356 0.8923871,-1.20472 2.4540645,-1.88888 1.5765506,-0.69904 3.6141677,-0.69904 2.7664001,0 4.5660471,1.07087 1.799648,1.07086 2.364826,2.67716 0.565178,1.59142 0.565178,4.96762 z"
         style="font-style:normal;font-variant:normal;font-weight:normal;font-stretch:normal;font-size:30.46014595px;font-family:Impact;-inkscape-font-specification:Impact;fill:#fad116;fill-opacity:1;stroke:#e90000;stroke-width:1.32291663;stroke-miterlimit:4;stroke-dasharray:none;stroke-opacity:1"
         id="path6791"
         inkscape:connector-curvature="0" />
      <path
         d="m 31.634661,252.12577 v 19.73663 h -6.112852 l 0.104112,-1.63605 q -0.624671,0.9965 -1.546804,1.50219 -0.90726,0.49081 -2.09711,0.49081 -1.353454,0 -2.245841,-0.47594 -0.892387,-0.47594 -1.323707,-1.26421 -0.416448,-0.78828 -0.520559,-1.63605 -0.104112,-0.86264 -0.104112,-3.40594 v -13.31144 h 6.00874 v 13.43042 q 0,2.30534 0.133858,2.73666 0.148731,0.43132 0.773402,0.43132 0.66929,0 0.788275,-0.4462 0.133858,-0.44619 0.133858,-2.87051 v -13.28169 z"
         style="font-style:normal;font-variant:normal;font-weight:normal;font-stretch:normal;font-size:30.46014595px;font-family:Impact;-inkscape-font-specification:Impact;fill:#fad116;fill-opacity:1;stroke:#e90000;stroke-width:1.32291663;stroke-miterlimit:4;stroke-dasharray:none;stroke-opacity:1"
         id="path6793"
         inkscape:connector-curvature="0" />
      <path
         d="m 39.829747,252.12577 -0.237969,2.58792 q 1.308834,-2.78127 3.792645,-2.94488 v 6.94575 q -1.650916,0 -2.424319,0.44619 -0.773402,0.4462 -0.951879,1.24935 -0.178478,0.78827 -0.178478,3.65878 v 7.79352 h -6.008739 v -19.73663 z"
         style="font-style:normal;font-variant:normal;font-weight:normal;font-stretch:normal;font-size:30.46014595px;font-family:Impact;-inkscape-font-specification:Impact;fill:#fad116;fill-opacity:1;stroke:#e90000;stroke-width:1.32291663;stroke-miterlimit:4;stroke-dasharray:none;stroke-opacity:1"
         id="path6795"
         inkscape:connector-curvature="0" />
      <path
         d="m 50.895348,247.78282 v 3.13823 h -6.187217 v -3.13823 z m 0,4.34295 v 19.73663 h -6.187217 v -19.73663 z"
         style="font-style:normal;font-variant:normal;font-weight:normal;font-stretch:normal;font-size:30.46014595px;font-family:Impact;-inkscape-font-specification:Impact;fill:#fad116;fill-opacity:1;stroke:#e90000;stroke-width:1.32291663;stroke-miterlimit:4;stroke-dasharray:none;stroke-opacity:1"
         id="path6797"
         inkscape:connector-curvature="0" />
      <path
         d="m 66.63111,259.05664 v 4.83376 q 0,2.66229 -0.267716,3.91163 -0.267717,1.23447 -1.14523,2.32021 -0.877514,1.07087 -2.260714,1.59143 -1.368327,0.50568 -3.153101,0.50568 -1.992998,0 -3.376198,-0.43132 -1.3832,-0.44619 -2.156602,-1.32371 -0.758529,-0.89238 -1.085738,-2.14173 -0.327209,-1.26421 -0.327209,-3.77777 v -5.05686 q 0,-2.75152 0.594925,-4.29833 0.594925,-1.5468 2.141729,-2.48381 1.546804,-0.93701 3.95625,-0.93701 2.022744,0 3.465436,0.6098 1.457566,0.59493 2.245841,1.56168 0.788275,0.96675 1.070864,1.993 0.297463,1.02624 0.297463,3.12335 z m -6.00874,-1.48731 q 0,-1.51706 -0.163604,-1.90376 -0.163605,-0.40157 -0.699037,-0.40157 -0.535432,0 -0.71391,0.40157 -0.178477,0.3867 -0.178477,1.90376 v 8.909 q 0,1.39807 0.178477,1.82939 0.178478,0.41645 0.699037,0.41645 0.535432,0 0.699037,-0.3867 0.178477,-0.3867 0.178477,-1.66579 z"
         style="font-style:normal;font-variant:normal;font-weight:normal;font-stretch:normal;font-size:30.46014595px;font-family:Impact;-inkscape-font-specification:Impact;fill:#fad116;fill-opacity:1;stroke:#e90000;stroke-width:1.32291663;stroke-miterlimit:4;stroke-dasharray:none;stroke-opacity:1"
         id="path6799"
         inkscape:connector-curvature="0" />
      <path
         d="m 82.381743,252.12577 v 19.73663 h -6.112852 l 0.104112,-1.63605 q -0.624671,0.9965 -1.546804,1.50219 -0.907261,0.49081 -2.09711,0.49081 -1.353454,0 -2.245841,-0.47594 -0.892387,-0.47594 -1.323707,-1.26421 -0.416448,-0.78828 -0.52056,-1.63605 -0.104111,-0.86264 -0.104111,-3.40594 v -13.31144 h 6.008739 v 13.43042 q 0,2.30534 0.133858,2.73666 0.148732,0.43132 0.773402,0.43132 0.669291,0 0.788276,-0.4462 0.133858,-0.44619 0.133858,-2.87051 v -13.28169 z"
         style="font-style:normal;font-variant:normal;font-weight:normal;font-stretch:normal;font-size:30.46014595px;font-family:Impact;-inkscape-font-specification:Impact;fill:#fad116;fill-opacity:1;stroke:#e90000;stroke-width:1.32291663;stroke-miterlimit:4;stroke-dasharray:none;stroke-opacity:1"
         id="path6801"
         inkscape:connector-curvature="0" />
      <path
         d="m 96.838408,258.43197 h -5.324576 v -1.07086 q 0,-1.36833 -0.163605,-1.72529 -0.148731,-0.37182 -0.773402,-0.37182 -0.505686,0 -0.758529,0.34208 -0.252843,0.32721 -0.252843,0.9965 0,0.90726 0.118985,1.33858 0.133858,0.41644 0.758529,0.92213 0.639544,0.50569 2.602796,1.47244 2.617669,1.27909 3.43569,2.40944 0.818022,1.13036 0.818022,3.28696 0,2.40945 -0.624671,3.64392 -0.624671,1.21959 -2.09711,1.88888 -1.457565,0.65442 -3.524929,0.65442 -2.29046,0 -3.926503,-0.71391 -1.62117,-0.71391 -2.230968,-1.9335 -0.609798,-1.2196 -0.609798,-3.68854 v -0.95188 h 5.324577 v 1.24935 q 0,1.59142 0.19335,2.06736 0.208224,0.47594 0.803149,0.47594 0.639544,0 0.892387,-0.31234 0.252843,-0.32721 0.252843,-1.35345 0,-1.41295 -0.327209,-1.7699 -0.342082,-0.35696 -3.495183,-2.11198 -2.647415,-1.48732 -3.227466,-2.69204 -0.580052,-1.21959 -0.580052,-2.88538 0,-2.36483 0.624671,-3.48031 0.624671,-1.13036 2.111983,-1.74016 1.502185,-0.6098 3.480309,-0.6098 1.963252,0 3.331579,0.50569 1.3832,0.49081 2.111983,1.30883 0.743656,0.81803 0.892387,1.51706 0.163604,0.69904 0.163604,2.18635 z"
         style="font-style:normal;font-variant:normal;font-weight:normal;font-stretch:normal;font-size:30.46014595px;font-family:Impact;-inkscape-font-specification:Impact;fill:#fad116;fill-opacity:1;stroke:#e90000;stroke-width:1.32291663;stroke-miterlimit:4;stroke-dasharray:none;stroke-opacity:1"
         id="path6803"
         inkscape:connector-curvature="0" />
    </g>
    <g
       aria-label="Cookie"
       style="font-style:normal;font-variant:normal;font-weight:normal;font-stretch:normal;font-size:30.46014595px;line-height:7.93232918px;font-family:Impact;-inkscape-font-specification:Impact;letter-spacing:0px;word-spacing:0px;fill:#fad116;fill-opacity:1;stroke:#e90000;stroke-width:1.32291663;stroke-miterlimit:4;stroke-dasharray:none;stroke-opacity:1"
       id="text6733"
       transform="matrix(1,0,-0.32071001,1,86.970934,0.02556426)">
      <path
         d="m 35.256189,282.16926 h -6.261583 v -4.19422 q 0,-1.8294 -0.208223,-2.27559 -0.193351,-0.46107 -0.877514,-0.46107 -0.773403,0 -0.981626,0.55031 -0.208224,0.5503 -0.208224,2.3797 v 11.18458 q 0,1.75503 0.208224,2.29046 0.208223,0.53543 0.937006,0.53543 0.699037,0 0.90726,-0.53543 0.223097,-0.53543 0.223097,-2.51355 v -3.01925 h 6.261583 v 0.93701 q 0,3.73315 -0.535432,5.29483 -0.520559,1.56168 -2.33508,2.73665 -1.799647,1.17498 -4.447062,1.17498 -2.751527,0 -4.536301,-0.9965 -1.784774,-0.9965 -2.364826,-2.75153 -0.580052,-1.7699 -0.580052,-5.3097 v -7.03498 q 0,-2.6028 0.178478,-3.89676 0.178477,-1.30884 1.055991,-2.51356 0.892387,-1.20472 2.454065,-1.88888 1.57655,-0.69904 3.614167,-0.69904 2.7664,0 4.566048,1.07086 1.799647,1.07087 2.364825,2.67716 0.565179,1.59143 0.565179,4.96763 z"
         style="font-style:normal;font-variant:normal;font-weight:normal;font-stretch:normal;font-size:30.46014595px;font-family:Impact;-inkscape-font-specification:Impact;fill:#fad116;fill-opacity:1;stroke:#e90000;stroke-width:1.32291663;stroke-miterlimit:4;stroke-dasharray:none;stroke-opacity:1"
         id="path6771"
         inkscape:connector-curvature="0" />
      <path
         d="m 50.947329,282.94266 v 4.83376 q 0,2.66229 -0.267716,3.91163 -0.267716,1.23447 -1.14523,2.32021 -0.877514,1.07086 -2.260714,1.59142 -1.368327,0.50569 -3.153101,0.50569 -1.992998,0 -3.376198,-0.43132 -1.3832,-0.4462 -2.156602,-1.32371 -0.758529,-0.89239 -1.085738,-2.14173 -0.327208,-1.26421 -0.327208,-3.77777 v -5.05686 q 0,-2.75153 0.594924,-4.29833 0.594925,-1.54681 2.141729,-2.48381 1.546805,-0.93701 3.95625,-0.93701 2.022744,0 3.465436,0.6098 1.457566,0.59492 2.245841,1.56168 0.788275,0.96675 1.070865,1.99299 0.297462,1.02625 0.297462,3.12336 z m -6.00874,-1.48731 q 0,-1.51706 -0.163604,-1.90376 -0.163604,-0.40158 -0.699037,-0.40158 -0.535432,0 -0.713909,0.40158 -0.178478,0.3867 -0.178478,1.90376 v 8.90899 q 0,1.39808 0.178478,1.8294 0.178477,0.41645 0.699036,0.41645 0.535433,0 0.699037,-0.38671 0.178477,-0.3867 0.178477,-1.66579 z"
         style="font-style:normal;font-variant:normal;font-weight:normal;font-stretch:normal;font-size:30.46014595px;font-family:Impact;-inkscape-font-specification:Impact;fill:#fad116;fill-opacity:1;stroke:#e90000;stroke-width:1.32291663;stroke-miterlimit:4;stroke-dasharray:none;stroke-opacity:1"
         id="path6773"
         inkscape:connector-curvature="0" />
      <path
         d="m 66.534357,282.94266 v 4.83376 q 0,2.66229 -0.267716,3.91163 -0.267716,1.23447 -1.14523,2.32021 -0.877514,1.07086 -2.260714,1.59142 -1.368327,0.50569 -3.153101,0.50569 -1.992998,0 -3.376198,-0.43132 -1.3832,-0.4462 -2.156602,-1.32371 -0.758529,-0.89239 -1.085737,-2.14173 -0.327209,-1.26421 -0.327209,-3.77777 v -5.05686 q 0,-2.75153 0.594925,-4.29833 0.594925,-1.54681 2.141729,-2.48381 1.546804,-0.93701 3.956249,-0.93701 2.022744,0 3.465437,0.6098 1.457565,0.59492 2.245841,1.56168 0.788275,0.96675 1.070864,1.99299 0.297462,1.02625 0.297462,3.12336 z m -6.008739,-1.48731 q 0,-1.51706 -0.163605,-1.90376 -0.163604,-0.40158 -0.699036,-0.40158 -0.535432,0 -0.71391,0.40158 -0.178477,0.3867 -0.178477,1.90376 v 8.90899 q 0,1.39808 0.178477,1.8294 0.178478,0.41645 0.699037,0.41645 0.535432,0 0.699036,-0.38671 0.178478,-0.3867 0.178478,-1.66579 z"
         style="font-style:normal;font-variant:normal;font-weight:normal;font-stretch:normal;font-size:30.46014595px;font-family:Impact;-inkscape-font-specification:Impact;fill:#fad116;fill-opacity:1;stroke:#e90000;stroke-width:1.32291663;stroke-miterlimit:4;stroke-dasharray:none;stroke-opacity:1"
         id="path6775"
         inkscape:connector-curvature="0" />
      <path
         d="m 81.466965,276.01179 -2.439191,7.86787 3.167974,11.86875 h -5.785643 l -1.874013,-8.59666 v 8.59666 h -6.00874 v -24.07958 h 6.00874 v 10.11373 l 1.874013,-5.77077 z"
         style="font-style:normal;font-variant:normal;font-weight:normal;font-stretch:normal;font-size:30.46014595px;font-family:Impact;-inkscape-font-specification:Impact;fill:#fad116;fill-opacity:1;stroke:#e90000;stroke-width:1.32291663;stroke-miterlimit:4;stroke-dasharray:none;stroke-opacity:1"
         id="path6777"
         inkscape:connector-curvature="0" />
      <path
         d="m 89.290226,271.66883 v 3.13823 h -6.187217 v -3.13823 z m 0,4.34296 v 19.73662 h -6.187217 v -19.73662 z"
         style="font-style:normal;font-variant:normal;font-weight:normal;font-stretch:normal;font-size:30.46014595px;font-family:Impact;-inkscape-font-specification:Impact;fill:#fad116;fill-opacity:1;stroke:#e90000;stroke-width:1.32291663;stroke-miterlimit:4;stroke-dasharray:none;stroke-opacity:1"
         id="path6779"
         inkscape:connector-curvature="0" />
      <path
         d="m 105.04086,286.22962 h -7.778643 v 4.26858 q 0,1.33858 0.19335,1.72528 0.193351,0.38671 0.743656,0.38671 0.684163,0 0.90726,-0.50569 0.23797,-0.52056 0.23797,-1.993 v -2.60279 h 5.696407 v 1.45756 q 0,1.82939 -0.23797,2.81102 -0.2231,0.98163 -1.07087,2.09711 -0.84776,1.11548 -2.1566,1.68066 -1.29396,0.55031 -3.257212,0.55031 -1.903759,0 -3.361325,-0.55031 -1.457565,-0.5503 -2.275587,-1.50218 -0.803148,-0.96676 -1.115484,-2.11199 -0.312335,-1.1601 -0.312335,-3.36132 v -5.7559 q 0,-2.58792 0.699036,-4.07523 0.699037,-1.50219 2.290461,-2.29046 1.591423,-0.80315 3.658787,-0.80315 2.528429,0 4.164469,0.96675 1.65092,0.95188 2.30534,2.54331 0.66929,1.57655 0.66929,4.44706 z m -6.023616,-3.2126 v -1.44269 q 0,-1.53193 -0.163604,-1.97812 -0.163604,-0.4462 -0.66929,-0.4462 -0.624671,0 -0.773402,0.3867 -0.148731,0.37183 -0.148731,2.03762 v 1.44269 z"
         style="font-style:normal;font-variant:normal;font-weight:normal;font-stretch:normal;font-size:30.46014595px;font-family:Impact;-inkscape-font-specification:Impact;fill:#fad116;fill-opacity:1;stroke:#e90000;stroke-width:1.32291663;stroke-miterlimit:4;stroke-dasharray:none;stroke-opacity:1"
         id="path6781"
         inkscape:connector-curvature="0" />
    </g>
    <g
       aria-label="The"
       style="font-style:normal;font-variant:normal;font-weight:normal;font-stretch:normal;font-size:8.29882908px;line-height:2.16115332px;font-family:Impact;-inkscape-font-specification:Impact;letter-spacing:0px;word-spacing:0px;fill:#fad116;fill-opacity:1;stroke:#e90000;stroke-width:0.36042699;stroke-miterlimit:4;stroke-dasharray:none;stroke-opacity:1"
       id="text6769"
       transform="matrix(1,0,-0.32071001,1,86.970934,0.02556426)">
      <path
         d="m 20.45994,244.43531 v 1.3129 H 19.4469 v 5.24755 h -1.705961 v -5.24755 h -1.008988 v -1.3129 z"
         style="font-style:normal;font-variant:normal;font-weight:normal;font-stretch:normal;font-size:8.29882908px;font-family:Impact;-inkscape-font-specification:Impact;fill:#fad116;fill-opacity:1;stroke:#e90000;stroke-width:0.36042699;stroke-miterlimit:4;stroke-dasharray:none;stroke-opacity:1"
         id="path6784"
         inkscape:connector-curvature="0" />
      <path
         d="m 22.437396,244.43531 v 1.47498 q 0.210712,-0.1945 0.453842,-0.29175 0.247182,-0.0973 0.526781,-0.0973 0.429529,0 0.729389,0.21881 0.303913,0.21882 0.368747,0.50652 0.06889,0.28365 0.06889,1.04141 v 3.70773 h -1.637074 v -3.78472 q 0,-0.47005 -0.04863,-0.60377 -0.04457,-0.13373 -0.20666,-0.13373 -0.14993,0 -0.202608,0.13778 -0.05268,0.13777 -0.05268,0.54704 v 3.8374 h -1.637074 v -6.56045 z"
         style="font-style:normal;font-variant:normal;font-weight:normal;font-stretch:normal;font-size:8.29882908px;font-family:Impact;-inkscape-font-specification:Impact;fill:#fad116;fill-opacity:1;stroke:#e90000;stroke-width:0.36042699;stroke-miterlimit:4;stroke-dasharray:none;stroke-opacity:1"
         id="path6786"
         inkscape:connector-curvature="0" />
      <path
         d="m 28.851969,248.40237 h -2.119281 v 1.16297 q 0,0.3647 0.05268,0.47006 0.05268,0.10535 0.202608,0.10535 0.1864,0 0.247182,-0.13777 0.06483,-0.14183 0.06483,-0.54299 v -0.70913 h 1.551978 v 0.39711 q 0,0.49842 -0.06483,0.76586 -0.06078,0.26744 -0.291756,0.57136 -0.230973,0.30391 -0.587564,0.45789 -0.352538,0.14993 -0.887423,0.14993 -0.518677,0 -0.915789,-0.14993 -0.397112,-0.14993 -0.619981,-0.40927 -0.218817,-0.26339 -0.303912,-0.57541 -0.0851,-0.31606 -0.0851,-0.91578 v -1.56819 q 0,-0.70508 0.190452,-1.11029 0.190452,-0.40927 0.624033,-0.62404 0.433582,-0.21881 0.996832,-0.21881 0.688868,0 1.134606,0.26339 0.44979,0.25934 0.628085,0.69292 0.182347,0.42953 0.182347,1.21159 z m -1.641126,-0.87526 v -0.39306 q 0,-0.41738 -0.04457,-0.53894 -0.04457,-0.12157 -0.182348,-0.12157 -0.170191,0 -0.210712,0.10536 -0.04052,0.1013 -0.04052,0.55515 v 0.39306 z"
         style="font-style:normal;font-variant:normal;font-weight:normal;font-stretch:normal;font-size:8.29882908px;font-family:Impact;-inkscape-font-specification:Impact;fill:#fad116;fill-opacity:1;stroke:#e90000;stroke-width:0.36042699;stroke-miterlimit:4;stroke-dasharray:none;stroke-opacity:1"
         id="path6788"
         inkscape:connector-curvature="0" />
    </g>
  </g>
</svg>
